HIERARCHY
ROOT Hips
{
  OFFSET -32.5998 29.0326 120.673
  CHANNELS 6 Xposition Yposition Zposition Zrotation Xrotation Yrotation
  JOINT LeftUpLeg
  {
    OFFSET 8.64259 1.95398 -2.38835
    CHANNELS 3 Zrotation Xrotation Yrotation
    JOINT LeftLeg
    {
      OFFSET 43.7702 0 0
      CHANNELS 3 Zrotation Xrotation Yrotation
      JOINT LeftFoot
      {
        OFFSET 40.6238 0 0
        CHANNELS 3 Zrotation Xrotation Yrotation
        JOINT LeftToeBase
        {
          OFFSET 12.7242 0 0
          CHANNELS 3 Zrotation Xrotation Yrotation
          End Site
          {
            OFFSET 0 0 0
          }
        }
      }
    }
  }
  JOINT RightUpLeg
  {
    OFFSET -8.2249 1.95398 -2.59336
    CHANNELS 3 Zrotation Xrotation Yrotation
    JOINT RightLeg
    {
      OFFSET 43.5653 0 0
      CHANNELS 3 Zrotation Xrotation Yrotation
      JOINT RightFoot
      {
        OFFSET 40.6238 0 0
        CHANNELS 3 Zrotation Xrotation Yrotation
        JOINT RightToeBase
        {
          OFFSET 12.7242 0 0
          CHANNELS 3 Zrotation Xrotation Yrotation
          End Site
          {
            OFFSET 0 0 0
          }
        }
      }
    }
  }
  JOINT Spine
  {
    OFFSET 0.165834 0.87714 6.61349
    CHANNELS 3 Zrotation Xrotation Yrotation
    JOINT Spine1
    {
      OFFSET 7.38963 1.71661e-005 0
      CHANNELS 3 Zrotation Xrotation Yrotation
      JOINT Spine2
      {
        OFFSET 11.9445 1.14441e-005 0
        CHANNELS 3 Zrotation Xrotation Yrotation
        JOINT Spine3
        {
          OFFSET 14.7254 4.19617e-005 0
          CHANNELS 3 Zrotation Xrotation Yrotation
          JOINT Spine4
          {
            OFFSET 10.9679 0 0
            CHANNELS 3 Zrotation Xrotation Yrotation
            JOINT RightShoulder
            {
              OFFSET 2.46616 -1.6653 3.69651
              CHANNELS 3 Zrotation Xrotation Yrotation
              JOINT RightArm
              {
                OFFSET 13.0012 0 0
                CHANNELS 3 Zrotation Xrotation Yrotation
                JOINT RightForeArm
                {
                  OFFSET 28.7848 1.62311e-005 0
                  CHANNELS 3 Zrotation Xrotation Yrotation
                  JOINT RightHand
                  {
                    OFFSET 26.5688 1.62095e-005 0
                    CHANNELS 3 Zrotation Xrotation Yrotation
                    End Site
                    {
                      OFFSET 0 0 0
                    }
                  }
                }
              }
            }
            JOINT LeftShoulder
            {
              OFFSET 2.38034 -1.29275 -3.7523
              CHANNELS 3 Zrotation Xrotation Yrotation
              JOINT LeftArm
              {
                OFFSET 16.3182 6.07031e-005 0
                CHANNELS 3 Zrotation Xrotation Yrotation
                JOINT LeftForeArm
                {
                  OFFSET 27.0901 0 0
                  CHANNELS 3 Zrotation Xrotation Yrotation
                  JOINT LeftHand
                  {
                    OFFSET 24.5451 1.51738e-005 0
                    CHANNELS 3 Zrotation Xrotation Yrotation
                    End Site
                    {
                      OFFSET 0 0 0
                    }
                  }
                }
              }
            }
            JOINT Neck
            {
              OFFSET 5.0226 -0.0266342 0
              CHANNELS 3 Zrotation Xrotation Yrotation
              JOINT Head
              {
                OFFSET 6.69364 2.86102e-005 0
                CHANNELS 3 Zrotation Xrotation Yrotation
                End Site
                {
                  OFFSET 0 0 0
                }
              }
            }
          }
        }
      }
    }
  }
}
MOTION
Frames:	6
Frame Time:	0.0416667
1.46692 97.3364 -89.6277 -160.033 -80.0948 -162.621 -177.114 15.7046 84.6697 -10.3383 1.5116 -1.54942 62.8752 1.33642 -3.78471 16.8406 -9.77542 8.26385 169.261 -21.0513 86.7904 -18.0044 -18.1468 -1.46354 78.4958 -12.0485 -3.46578 30.3856 -1.52787 3.36034 1.1365 8.2431 -89.7095 10.385 2.39714 0.367653 -1.28381 2.411 0.261722 -23.8337 2.17577 1.07141 -3.82103 2.17578 1.07141 89.6581 -26.6316 -108.828 32.1933 -11.8527 -17.9205 -20.0958 -16.5311 -33.3913 -9.77779 -0.132948 -3.77974 -88.8133 -54.6439 81.3693 -25.7006 19.3768 5.30122 7.44261 -6.51429 -10.8554 -3.8774 -0.118729 -2.41839 -1.49726 -2.72774 1.06819 -2.72746 -2.85858 -3.67154 
1.92729 97.3901 -81.8074 -145.486 -78.9459 -149.021 -176.185 16.9529 83.9247 -19.0751 3.18104 -2.19795 58.7238 -2.3639 -2.85689 11.8934 -11.3772 6.42682 167.046 -23.4613 82.9879 -19.4068 -22.3 -2.9893 72.7892 -8.81123 -4.19381 37.5185 -4.36796 3.3424 1.32277 8.08586 -89.5096 10.6953 2.86017 0.712676 -0.972637 2.88876 0.585998 -23.5268 2.5137 1.53977 -3.51418 2.5137 1.53977 89.3733 -26.6796 -109.398 34.6225 -14.8902 -16.5952 -17.4272 -16.4097 -29.2855 -10.0247 -0.0950748 -4.26281 -88.3312 -55.2443 82.1591 -26.2138 16.0233 6.0874 8.11294 -6.77077 -11.3291 -4.84068 -0.125794 -2.70491 -1.78929 -2.45405 0.159552 -3.7827 -2.4412 -3.4775 
2.40819 97.718 -74.1733 -143.169 -78.3545 -148.506 -175.29 15.2893 81.6932 -25.8812 4.02759 -3.26193 64.0072 0.718681 -2.14923 6.22886 -13.2858 4.56552 166.311 -20.5522 79.76 -29.7594 -23.527 -4.89488 65.562 -3.6091 -3.62891 42.2149 -6.66468 7.49396 1.22841 7.96299 -89.2393 10.933 2.79766 1.24858 -0.735388 2.8499 1.12416 -23.2833 2.2931 2.03187 -3.27061 2.2931 2.03187 89.7097 -26.418 -108.814 38.7939 -18.7933 -14.147 -14.3576 -16.601 -24.3824 -8.70015 -0.0338608 -5.00011 -88.5119 -55.0094 81.8626 -25.4491 16.5097 4.76905 7.8291 -7.06376 -10.6179 -4.52661 -0.117147 -2.95447 -2.53105 -2.36829 -0.525278 -5.42595 -2.22104 -3.92852 
2.70953 98.4074 -67.7651 -140.928 -77.1721 -147.415 -175.35 10.3477 80.0966 -26.4373 3.38228 -3.53331 68.001 3.47262 -0.888702 7.45825 -12.867 4.94505 168.303 -12.355 78.6663 -47.8234 -24.045 -6.86125 58.5959 1.78895 -1.28937 28.494 -1.95765 8.83024 1.12874 8.01052 -89.1347 10.835 2.64714 1.47379 -0.833949 2.70943 1.35581 -23.377 2.08191 2.20129 -3.3644 2.0819 2.20129 89.6454 -26.1214 -109.078 41.7543 -20.7348 -10.9246 -12.2178 -15.3978 -21.7965 -9.00578 -0.00746745 -5.41123 -88.9682 -55.7398 81.3456 -19.8861 23.4161 -2.65319 6.30347 -5.6711 -6.42582 -4.26833 -0.109484 -3.22186 -2.6141 -1.93914 -0.186749 -6.16855 -1.81008 -3.91268 
2.68826 98.7662 -62.4374 -139.537 -76.0724 -146.434 -175.247 5.77045 79.492 -26.1657 3.56808 -3.93175 70.9544 5.45161 0.553295 8.93757 -12.0655 4.97868 171.637 -3.49432 79.7318 -61.1162 -21.697 -7.30609 57.6509 2.50616 0.0114257 21.2982 1.1219 7.16775 0.906462 8.12901 -89.1327 10.5994 2.20421 1.52512 -1.07048 2.26919 1.4266 -23.6077 1.64405 2.117 -3.59502 1.64405 2.117 89.8732 -26.1463 -108.59 43.3292 -20.7939 -8.26142 -13.3903 -17.8785 -23.1842 -9.60415 -0.0778807 -4.46284 -89.0788 -54.9633 81.051 -15.0113 23.6514 -10.7617 6.33435 -4.29606 -4.73803 -3.72297 -0.0946102 -3.81102 -3.36895 -0.891328 0.210982 -5.6072 -0.83913 -3.65902 
2.49297 99.2096 -57.7726 -139.829 -75.387 -145.746 -175.19 1.32892 80.1392 -25.0503 3.08304 -3.56005 73.2123 6.86626 0.448847 10.3332 -11.4458 5.19352 174.312 3.90865 82.5791 -64.735 -17.6155 -6.55286 65.6198 -2.7365 -1.45645 24.2184 -0.000941962 7.18304 0.581386 8.24716 -89.2499 10.3685 1.50172 1.35867 -1.30221 1.56006 1.29125 -23.8354 1.02403 1.74712 -3.82275 1.02403 1.74711 90.0845 -27.4789 -107.59 43.0201 -20.5835 -6.65351 -12.7979 -15.1741 -23.8082 -9.70916 -0.119373 -3.94751 -89.2041 -52.1661 80.3436 -10.6025 24.0376 -16.7184 5.80455 -7.11369 -7.58899 -2.6159 -0.0938096 -3.75559 -4.16232 0.297878 -1.34148 -5.36579 0.455543 -1.17268 
